<svg xmlns="http://www.w3.org/2000/svg" viewBox="0 0 1024 1024" width="1024" height="1024">
  <defs>
    <linearGradient id="bg" x1="0%" y1="0%" x2="100%" y2="100%">
      <stop offset="0%" style="stop-color:#7719AA"/>
      <stop offset="100%" style="stop-color:#5B2C8C"/>
    </linearGradient>
    <linearGradient id="pencil" x1="0%" y1="0%" x2="0%" y2="100%">
      <stop offset="0%" style="stop-color:#F39C12"/>
      <stop offset="100%" style="stop-color:#E67E22"/>
    </linearGradient>
  </defs>
  <!-- Background -->
  <rect x="0" y="0" width="1024" height="1024" rx="180" ry="180" fill="url(#bg)"/>
  <!-- Notebook body -->
  <rect x="200" y="160" width="620" height="700" rx="40" ry="40" fill="rgba(255,255,255,0.95)"/>
  <!-- Sidebar stripe -->
  <rect x="200" y="160" width="60" height="700" rx="40" ry="0" fill="#9B59B6"/>
  <rect x="220" y="160" width="40" height="700" fill="#9B59B6"/>
  <!-- Lines -->
  <line x1="290" y1="280" x2="780" y2="280" stroke="rgba(119,25,170,0.15)" stroke-width="2"/>
  <line x1="290" y1="352" x2="780" y2="352" stroke="rgba(119,25,170,0.15)" stroke-width="2"/>
  <line x1="290" y1="424" x2="780" y2="424" stroke="rgba(119,25,170,0.15)" stroke-width="2"/>
  <line x1="290" y1="496" x2="780" y2="496" stroke="rgba(119,25,170,0.15)" stroke-width="2"/>
  <line x1="290" y1="568" x2="780" y2="568" stroke="rgba(119,25,170,0.15)" stroke-width="2"/>
  <line x1="290" y1="640" x2="780" y2="640" stroke="rgba(119,25,170,0.15)" stroke-width="2"/>
  <line x1="290" y1="712" x2="780" y2="712" stroke="rgba(119,25,170,0.15)" stroke-width="2"/>
  <line x1="290" y1="784" x2="780" y2="784" stroke="rgba(119,25,170,0.15)" stroke-width="2"/>
  <!-- Text lines -->
  <rect x="290" y="260" width="350" height="14" rx="3" fill="rgba(119,25,170,0.35)"/>
  <rect x="290" y="332" width="420" height="10" rx="3" fill="rgba(119,25,170,0.25)"/>
  <rect x="290" y="404" width="380" height="10" rx="3" fill="rgba(119,25,170,0.25)"/>
  <rect x="290" y="476" width="300" height="10" rx="3" fill="rgba(119,25,170,0.25)"/>
  <rect x="290" y="548" width="440" height="10" rx="3" fill="rgba(119,25,170,0.25)"/>
  <!-- Pencil -->
  <g transform="translate(680, 250) rotate(45)">
    <rect x="-14" y="0" width="28" height="280" rx="4" fill="url(#pencil)"/>
    <polygon points="-14,280 14,280 0,325" fill="#2C3E50"/>
    <rect x="-14" y="-28" width="28" height="28" rx="4" fill="#E74C3C"/>
    <rect x="-14" y="0" width="28" height="8" fill="rgba(0,0,0,0.1)"/>
  </g>
</svg>
